<svg width="117" height="117" viewBox="0 0 117 117" fill="none" xmlns="http://www.w3.org/2000/svg">
<path d="M72.3008 75.6681C72.0477 75.6293 71.79 75.6604 71.5501 75.7589C71.3101 75.8574 71.0951 76.0201 70.9236 76.2331C70.7492 76.4425 70.6213 76.6953 70.5504 76.9709C70.4794 77.2465 70.4674 77.5371 70.5153 77.8189C71.4097 83.1049 74.42 90.3594 83.6617 94.8761C84.757 95.4084 86.4485 95.824 88.5937 96.3453C96.6234 98.2992 110.052 101.573 113.351 115.418C113.406 115.65 113.501 115.867 113.631 116.057C113.761 116.247 113.923 116.406 114.107 116.526C114.292 116.646 114.496 116.723 114.707 116.754C114.918 116.785 115.133 116.769 115.339 116.707C115.544 116.645 115.737 116.538 115.906 116.392C116.075 116.245 116.217 116.063 116.323 115.856C116.429 115.648 116.498 115.419 116.526 115.181C116.554 114.944 116.539 114.702 116.484 114.471C112.67 98.4779 97.4562 94.7704 89.2806 92.78C87.3882 92.317 85.7518 91.9196 84.9514 91.5259C79.3973 88.8137 75.8102 84.7891 74.2548 79.5469C89.6857 80.8374 96.6721 73.9219 96.9799 73.6084C97.1697 73.415 97.316 73.1738 97.407 72.9045C97.4979 72.6353 97.5308 72.3456 97.503 72.0592C97.4751 71.7729 97.3874 71.498 97.2469 71.2572C97.1064 71.0164 96.9172 70.8164 96.6947 70.6738C87.79 64.9504 87.79 45.1736 87.79 37.7259C87.79 16.8993 75.3209 0.388906 59.3358 0.130077C59.1836 0.124375 59.0313 0.120729 58.8789 0.119141C42.6606 0.221214 29.4623 16.7498 29.4623 36.9677C29.4623 44.4154 29.4623 64.1958 20.5576 69.9155C20.3281 70.0655 20.1346 70.2763 19.994 70.5296C19.8533 70.7828 19.7698 71.0709 19.7506 71.3688C19.7314 71.6666 19.7772 71.9652 19.884 72.2387C19.9908 72.5121 20.1553 72.752 20.3632 72.9376C20.8104 73.3277 30.6937 81.8362 42.855 79.2516C41.2283 84.2751 37.6898 88.1393 32.2977 90.775C31.5168 91.1577 29.9614 91.577 28.1597 92.0582C19.929 94.26 4.60503 98.3612 0.768359 114.467C0.713252 114.698 0.699209 114.94 0.727033 115.177C0.754857 115.415 0.824002 115.644 0.930521 115.852C1.14565 116.271 1.49994 116.576 1.91547 116.702C2.331 116.827 2.77372 116.761 3.14624 116.519C3.51875 116.277 3.79056 115.879 3.90185 115.411C7.23625 101.398 20.8072 97.7706 28.9115 95.5979C30.9432 95.0548 32.5472 94.6246 33.5907 94.1179C42.8324 89.6011 45.8395 82.3466 46.7371 77.0607C46.7903 76.751 46.7708 76.431 46.6805 76.1324C46.5901 75.8339 46.432 75.567 46.2218 75.3582C46.0133 75.1476 45.7596 75.0019 45.4856 74.9354C45.2117 74.8689 44.9271 74.884 44.66 74.9791C35.8881 78.085 27.7838 73.8125 24.242 71.443C32.7028 63.4739 32.7028 45.1335 32.7028 36.9677C32.7028 18.7512 44.4526 3.85576 59.015 3.75733L59.3585 3.7792C73.7201 4.00887 84.5496 18.6017 84.5496 37.7259C84.5496 45.8954 84.5496 64.276 93.046 72.245C90.1199 74.126 83.4479 77.17 72.3008 75.6681Z" fill="black"/>
</svg>
