<svg width="136" height="137" viewBox="0 0 136 137" fill="none" xmlns="http://www.w3.org/2000/svg">
<path d="M84.2234 88.2436C83.9278 88.1983 83.6268 88.2347 83.3466 88.3497C83.0663 88.4647 82.8152 88.6548 82.6149 88.9036C82.4112 89.1481 82.2619 89.4433 82.179 89.7652C82.0961 90.0871 82.0821 90.4265 82.1381 90.7556C83.1826 96.9292 86.6985 105.402 97.492 110.677C98.7712 111.299 100.747 111.784 103.252 112.393C112.63 114.675 128.313 118.498 132.166 134.669C132.231 134.939 132.342 135.193 132.494 135.414C132.645 135.636 132.834 135.823 133.05 135.962C133.266 136.102 133.504 136.193 133.75 136.229C133.997 136.265 134.248 136.247 134.488 136.174C134.728 136.101 134.954 135.976 135.151 135.805C135.348 135.635 135.514 135.422 135.638 135.18C135.762 134.937 135.843 134.669 135.875 134.392C135.907 134.114 135.89 133.832 135.826 133.562C131.371 114.884 113.603 110.554 104.054 108.229C101.844 107.688 99.9331 107.224 98.9983 106.764C92.5116 103.597 88.322 98.8962 86.5055 92.7737C104.528 94.2809 112.687 86.2042 113.047 85.8381C113.268 85.6122 113.439 85.3305 113.545 85.016C113.652 84.7015 113.69 84.3632 113.657 84.0288C113.625 83.6943 113.522 83.3733 113.358 83.0921C113.194 82.8108 112.973 82.5773 112.714 82.4107C102.314 75.7262 102.314 52.6286 102.314 43.9302C102.314 19.6064 87.7506 0.323609 69.0813 0.0213178C68.9035 0.0146584 68.7256 0.0104005 68.5477 0.00854492C49.606 0.127759 34.1915 19.4318 34.1915 43.0446C34.1915 51.743 34.1915 74.8449 23.7915 81.5251C23.5235 81.7003 23.2975 81.9464 23.1332 82.2422C22.9689 82.538 22.8714 82.8745 22.849 83.2224C22.8266 83.5702 22.8801 83.919 23.0048 84.2383C23.1295 84.5576 23.3216 84.8379 23.5645 85.0547C24.0867 85.5102 35.6296 95.4475 49.8331 92.4289C47.9332 98.2959 43.8005 102.809 37.503 105.887C36.5909 106.334 34.7743 106.824 32.6701 107.386C23.0573 109.958 5.16016 114.747 0.679243 133.558C0.614882 133.828 0.598482 134.11 0.630978 134.387C0.663474 134.665 0.74423 134.932 0.868636 135.175C1.11988 135.664 1.53367 136.021 2.01898 136.167C2.50428 136.314 3.02134 136.237 3.45641 135.954C3.89148 135.672 4.20893 135.206 4.33891 134.66C8.23322 118.294 24.083 114.058 33.5481 111.52C35.9211 110.886 37.7944 110.383 39.013 109.791C49.8066 104.516 53.3187 96.0436 54.367 89.87C54.4292 89.5084 54.4064 89.1347 54.3009 88.786C54.1953 88.4372 54.0107 88.1255 53.7652 87.8817C53.5217 87.6358 53.2253 87.4655 52.9054 87.3879C52.5855 87.3102 52.2531 87.3278 51.9411 87.4389C41.6963 91.0664 32.2311 86.0765 28.0946 83.309C37.9761 74.0019 37.9761 52.5817 37.9761 43.0446C37.9761 21.7693 51.6989 4.37261 68.7067 4.25766L69.1078 4.2832C85.881 4.55143 98.529 21.5947 98.529 43.9302C98.529 53.4716 98.529 74.9385 108.452 84.2457C105.035 86.4426 97.2422 89.9978 84.2234 88.2436Z" fill="#4A945A"/>
</svg>
