<svg width="124" height="117" viewBox="0 0 124 117" fill="none" xmlns="http://www.w3.org/2000/svg">
<path d="M1.44616 116.496C1.88782 116.618 2.35705 116.55 2.75213 116.309C3.1472 116.068 3.4363 115.673 3.55675 115.208C7.10889 101.224 21.5451 97.5991 30.1736 95.4303C32.336 94.8881 34.0431 94.4587 35.1535 93.9529C44.9823 89.4515 48.1861 82.21 49.1448 76.9262C49.2018 76.6119 49.1792 76.2872 49.0793 75.985C48.9794 75.6828 48.8057 75.4137 48.5758 75.205C43.458 70.5435 39.1402 63.5458 36.4158 55.4965C36.3389 55.2656 36.218 55.0538 36.0605 54.8742C32.4567 50.7403 30.3875 46.37 30.3875 42.8875C30.3875 40.8533 31.1151 39.4887 32.7533 38.4589C32.9986 38.3041 33.2037 38.0874 33.35 37.8282C33.4963 37.5691 33.5792 37.2756 33.5913 36.9742C34.3534 18.4374 46.8653 3.8452 62.2119 3.75059L62.5809 3.77606C78.0034 4.00168 90.4359 18.9068 90.8807 37.7056C90.887 37.9626 90.9449 38.2152 91.0507 38.4467C91.1566 38.6782 91.3079 38.8833 91.4946 39.0484C92.574 40.0127 93.0775 41.2354 93.0775 42.8948C93.0775 45.8096 91.6049 49.3939 88.9357 52.9819C88.8085 53.1546 88.7105 53.3491 88.646 53.5569C85.887 62.7853 80.9347 70.9329 75.0651 75.9182C74.8219 76.1255 74.6365 76.3983 74.5284 76.7077C74.4203 77.0172 74.3937 77.3517 74.4512 77.6759C75.41 82.956 78.6138 90.1938 88.4425 94.7025C89.6047 95.2338 91.4084 95.6486 93.6949 96.169C102.237 98.1195 116.532 101.391 120.039 115.208C120.098 115.439 120.2 115.655 120.338 115.845C120.476 116.034 120.648 116.193 120.844 116.312C121.04 116.432 121.257 116.509 121.482 116.54C121.706 116.571 121.935 116.555 122.153 116.493C122.372 116.43 122.577 116.323 122.757 116.178C122.936 116.032 123.087 115.85 123.2 115.643C123.313 115.436 123.386 115.207 123.415 114.97C123.445 114.733 123.43 114.493 123.371 114.262C119.319 98.2978 103.124 94.597 94.426 92.6101C92.4085 92.148 90.6669 91.7513 89.8185 91.3583C83.404 88.418 79.4518 83.9385 78.0551 78.0216C84.011 72.625 88.9943 64.2991 91.8429 54.9615C94.8674 50.8131 96.5297 46.541 96.5297 42.8911C96.5297 40.4567 95.7848 38.4261 94.3087 36.8396C93.4879 16.4469 79.6967 0.388202 62.5809 0.129836L62.067 0.122559C45.2616 0.217171 31.4117 15.8537 30.2012 35.8934C28.0424 37.5674 26.9457 39.9145 26.9457 42.8948C26.9457 47.1997 29.2529 52.3488 33.2913 57.0721C36.0812 65.1615 40.4059 72.2684 45.5548 77.2428C44.1649 83.1816 40.2093 87.6757 33.781 90.6196C32.9498 91.0017 31.2945 91.4202 29.377 91.9005C20.6139 94.0984 4.30856 98.1923 0.225329 114.269C0.107406 114.735 0.169773 115.232 0.398713 115.649C0.627654 116.067 1.00442 116.372 1.44616 116.496Z" fill="black"/>
</svg>
