<svg width="138" height="137" viewBox="0 0 138 137" fill="none" xmlns="http://www.w3.org/2000/svg">
<g clip-path="url(#clip0_139_1460)">
<path d="M2.77533 136.58C3.26001 136.722 3.77494 136.643 4.20849 136.361C4.64205 136.079 4.9593 135.616 5.09148 135.072C8.98958 118.71 24.8317 114.47 34.3007 111.932C36.6736 111.298 38.547 110.795 39.7656 110.204C50.5516 104.937 54.0675 96.4642 55.1196 90.2821C55.1821 89.9143 55.1573 89.5345 55.0477 89.1809C54.9381 88.8273 54.7474 88.5125 54.4951 88.2683C48.8788 82.8143 44.1406 74.6269 41.1508 65.209C41.0664 64.9389 40.9337 64.6911 40.7609 64.4809C36.8061 59.6443 34.5354 54.5308 34.5354 50.4563C34.5354 48.0763 35.3339 46.4797 37.1316 45.2748C37.4008 45.0937 37.6259 44.8401 37.7864 44.5369C37.9469 44.2336 38.0379 43.8903 38.0512 43.5377C38.8876 21.8493 52.618 4.77621 69.4593 4.66551L69.8642 4.69531C86.7887 4.95929 100.432 22.3985 100.92 44.3934C100.927 44.6941 100.991 44.9896 101.107 45.2605C101.223 45.5314 101.389 45.7714 101.594 45.9645C102.779 47.0928 103.331 48.5233 103.331 50.4648C103.331 53.8752 101.715 58.0689 98.7858 62.267C98.6462 62.4689 98.5387 62.6965 98.4679 62.9397C95.4403 73.737 90.0056 83.2698 83.5643 89.1028C83.2975 89.3452 83.094 89.6644 82.9753 90.0265C82.8568 90.3885 82.8275 90.78 82.8907 91.1592C83.9428 97.337 87.4586 105.805 98.2446 111.081C99.52 111.702 101.499 112.188 104.008 112.796C113.383 115.079 129.07 118.906 132.919 135.072C132.983 135.342 133.095 135.596 133.246 135.817C133.398 136.039 133.587 136.225 133.802 136.364C134.017 136.504 134.255 136.594 134.502 136.631C134.748 136.667 134.999 136.648 135.239 136.575C135.479 136.503 135.704 136.377 135.901 136.207C136.098 136.036 136.263 135.824 136.387 135.582C136.511 135.339 136.592 135.072 136.624 134.795C136.656 134.517 136.639 134.235 136.575 133.965C132.128 115.287 114.355 110.957 104.811 108.633C102.597 108.092 100.686 107.628 99.7546 107.168C92.7154 103.728 88.3783 98.4866 86.8455 91.5637C93.3815 85.2496 98.8501 75.5082 101.976 64.5831C105.295 59.7294 107.119 54.731 107.119 50.4606C107.119 47.6122 106.302 45.2364 104.682 43.3801C103.781 19.5204 88.647 0.731461 69.8642 0.42917L69.3003 0.420654C50.8582 0.531353 35.6594 18.8264 34.331 42.2731C31.9618 44.2316 30.7584 46.9778 30.7584 50.4648C30.7584 55.5016 33.2902 61.5261 37.7219 67.0525C40.7837 76.5172 45.5295 84.8324 51.1798 90.6526C49.6547 97.601 45.3138 102.859 38.2594 106.304C37.3473 106.751 35.5307 107.24 33.4265 107.802C23.8099 110.374 5.91652 115.164 1.4356 133.974C1.30619 134.519 1.37463 135.1 1.62587 135.589C1.87711 136.077 2.29057 136.434 2.77533 136.58Z" fill="#4A945A"/>
</g>
<defs>
<clipPath id="clip0_139_1460">
<rect width="136.244" height="136.244" fill="white" transform="translate(0.883057 0.407959)"/>
</clipPath>
</defs>
</svg>
