<svg width="554" height="554" viewBox="0 0 554 554" fill="none" xmlns="http://www.w3.org/2000/svg">
<path fill-rule="evenodd" clip-rule="evenodd" d="M106.413 321.423L140.738 270.908L136.272 266.769L103.229 314.784L100.511 312.916L135.7 261.76L145.061 270.399L109.139 323.272L106.413 321.423Z" fill="url(#paint0_linear_118_115)"/>
<path fill-rule="evenodd" clip-rule="evenodd" d="M116.085 323.233C116.085 323.233 107.688 315.003 102.884 311.576C98.5261 308.46 90.4857 306.447 85.3311 308.685C83.6379 309.334 82.7876 310.15 81.6432 311.062C75.3827 316.065 36.5734 373.073 34.448 377.561C32.3954 381.905 36.3753 391.019 39.2146 395.056C42.9451 400.371 81.2745 340.04 91.0388 323.898L116.085 323.233V323.233Z" fill="url(#paint1_linear_118_115)"/>
<path d="M65.5032 400.151C63.4549 402.874 60.6594 407.063 58.31 407.285C54.7773 407.95 50.0948 405.068 46.9885 402.718L43.7034 400.23C39.7717 397.254 37.4622 393.745 37.7441 389.989C37.8791 388.194 38.608 386.345 40.0247 384.457L88.3258 318.777C92.732 312.96 99.167 313.173 106.485 316.721L111.12 318.948C117.797 322.544 117.39 325.858 117.287 327.994C117.535 329.764 112.677 337.787 110.358 340.863L65.5032 400.151Z" fill="#6A7B9B"/>
<path d="M66.3557 407.683C66.9238 409.96 65.2305 412.323 62.6002 412.963C59.9646 413.594 57.3839 412.264 56.8294 409.989L54.6369 400.913C54.0878 398.633 55.7677 396.269 58.4073 395.628C61.0416 395.008 63.6197 396.327 64.1725 398.598L66.3557 407.683V407.683Z" fill="#6A7B9B"/>
<path d="M53.4375 404.68C53.8504 406.339 52.6082 408.061 50.6862 408.528C48.7646 408.994 46.8869 408.019 46.4794 406.359L44.8769 399.739C44.4753 398.075 45.7022 396.347 47.6295 395.876C49.5511 395.425 51.4331 396.391 51.8363 398.051L53.4375 404.68Z" fill="#6A7B9B"/>
<path d="M182.677 401.588C176.105 399.551 174.145 393.265 170.937 384.012C167.735 374.775 169.253 371.656 169.253 371.656L154.928 371.675C154.928 371.675 156.31 380.91 155.621 384.856C154.928 388.796 152.559 395.358 155.845 396.047C159.13 396.74 164.822 397.153 168.695 404.602C171.713 410.382 185.564 409.828 186.743 407.537C189.029 403.083 182.677 401.588 182.677 401.588H182.677Z" fill="#232121"/>
<path d="M154.806 395.434C156.378 396.546 157.009 405.635 156.65 407.94C157.304 408.217 159.115 408.071 159.115 408.071C159.115 408.071 159.435 398.226 160.61 396.638C161.483 395.459 154.806 395.434 154.806 395.434Z" fill="#232121"/>
<path d="M181.444 257.879C177.973 271.22 175.425 322.258 174.396 329.425C173.363 336.593 171.868 386.893 171.868 386.893L152.815 389.155C152.815 389.155 145.493 348.313 154.66 333.798C152.815 311.377 150.763 282.857 150.763 282.857L169.908 254.991L181.444 257.879Z" fill="#232121"/>
<path d="M176.959 248.896C178.052 279.242 161.303 331.746 159.814 338.413C158.32 345.066 135.574 385.943 135.516 389.301C128.144 389.126 117.565 380.007 117.565 380.007C117.565 380.007 129.357 334.367 138.766 328.237C143.756 324.975 141.717 286.486 140.494 281.769C139.248 277.048 136.637 266.401 139.471 258.743C143.124 248.94 149.362 241.443 149.362 241.443L176.959 248.896Z" fill="black"/>
<path d="M134.293 404.053C130.065 398.623 132.045 392.348 134.709 382.929C137.369 373.514 140.382 371.815 140.382 371.815L128.629 363.644C128.629 363.644 124.49 372.01 121.66 374.854C118.84 377.693 113.138 381.721 115.438 384.157C117.744 386.607 122.179 390.199 121.098 398.531C120.257 404.999 131.949 412.464 134.224 411.26C138.641 408.906 134.293 404.053 134.293 404.053Z" fill="black"/>
<path d="M114.945 383.065C115.603 384.885 110.911 392.697 109.304 394.382C109.679 394.983 111.261 395.901 111.261 395.901C111.261 395.901 117.143 387.995 119.011 387.373C120.403 386.903 114.945 383.065 114.945 383.065Z" fill="black"/>
<path fill-rule="evenodd" clip-rule="evenodd" d="M145.774 285.011C145.774 285.011 141.533 269.574 143.547 263.3C143.62 263.066 143.693 262.843 143.765 262.62L158.765 274.859L145.774 285.011Z" fill="url(#paint2_linear_118_115)"/>
<path d="M219.698 189.987C211.366 191.064 202.679 203.604 201.719 209.689C201.097 213.611 202.698 202.871 198.937 197.446C195.628 192.67 195.478 191.728 192.882 189.346C196.196 188.143 207.033 177.247 209.4 169.182C211.754 161.107 219.698 189.987 219.698 189.987Z" fill="#D6A092"/>
<path fill-rule="evenodd" clip-rule="evenodd" d="M210.022 195.66C212.288 193.369 214.831 191.496 217.408 190.559C217.763 191.869 218.082 193.005 218.354 193.883L210.022 195.66L210.022 195.66Z" fill="url(#paint3_linear_118_115)"/>
<path fill-rule="evenodd" clip-rule="evenodd" d="M200.817 197.621L197.648 187.919C197.648 187.919 197.181 187.633 196.196 187.516C200.675 183.809 207.959 175.18 209.872 168.658C209.994 168.245 210.144 168.057 210.319 168.057C211.843 168.057 215.254 182.523 217.409 190.559C214.832 191.496 212.288 193.368 210.023 195.66L200.817 197.62L200.817 197.621Z" fill="url(#paint4_linear_118_115)"/>
<path fill-rule="evenodd" clip-rule="evenodd" d="M213.837 155.676C203.796 155.818 200.894 161.223 201.063 173.822C201.238 186.42 208.231 195.363 216.486 197.091C219.305 197.678 222.766 194.413 225.546 189.477C227.011 189.444 228.414 189.176 228.487 188.157C228.147 186.862 227.948 185.769 227.798 184.779C229.535 180.373 230.695 175.35 230.631 170.657C230.443 158.054 223.843 155.536 213.837 155.676L213.837 155.676Z" fill="url(#paint5_linear_118_115)"/>
<path d="M200.375 198.382C201.485 201.284 203.092 206.82 203.092 206.82C201.815 212.873 200.642 228.178 199.665 231.056C198.288 235.099 192.712 238.588 190.411 239.428C188.121 240.287 182.807 244.407 181.22 246.595C179.618 248.79 172.475 257.446 172.475 257.446C172.475 257.446 153.117 243.451 151.112 240.632C149.851 238.885 161.512 221.753 167.345 212.566C173.208 203.38 179.837 192.316 194.649 188.332C197.632 192.607 198.681 194.048 200.375 198.382V198.382Z" fill="#232121"/>
<path d="M167.462 212.426C161.614 221.613 149.963 238.743 151.21 240.496L151.239 240.529L165.803 247.552C165.803 247.552 169.278 243.368 169.768 241.84C170.267 240.292 188.024 207.248 191.028 203.133C193.241 200.09 197.05 198.46 200.18 197.561C198.661 193.762 197.565 192.224 194.741 188.191C179.935 192.185 173.315 203.234 167.462 212.427V212.426Z" fill="#3357BC"/>
<path d="M165.701 211.228L130.881 252.104L172.475 286.04L195.434 242.51L201.85 200.779L197.647 187.919C197.647 187.919 188.442 182.256 165.701 211.228V211.228Z" fill="#3357BC"/>
<path d="M226.178 166.824C231.331 164.368 235.946 168.566 234.053 177.685C226.27 181.037 222.926 179.009 222.926 179.009L226.178 166.824V166.824Z" fill="#300901"/>
<path d="M229.977 166.218L227.885 166.876C231.312 170.298 229.05 177.762 229.371 179.213C230.467 179.359 233.132 177.994 234.093 177.583C236.374 172.385 232.782 165.552 229.977 166.218Z" fill="#4F1109"/>
<path d="M230.283 167.328C229.663 165.964 228.764 152.086 210.862 155.561C204.15 156.866 199.171 158.442 194.065 168.479C181.521 193.136 187.591 194.441 187.591 194.441L211.478 207.995C211.478 207.995 208.969 201.919 209.09 194.403C209.203 187.522 209.566 180.887 209.566 180.887C209.566 180.887 209.93 177.339 210.779 175.296C211.658 173.205 213.895 172.549 214.69 174.102C215.235 175.185 227.998 169.842 227.998 169.842L230.283 167.327V167.328Z" fill="#300901"/>
<path d="M232.642 168.168C231.937 169.954 228.386 169.338 228.386 169.338C227.662 169.017 226.013 156.671 212.584 156.356C210.27 156.302 208.581 156.817 208.523 156.4C208.425 155.701 211.414 155.346 212.002 155.221C217.374 154.081 224.279 155.104 229.021 160.71C231.598 163.719 233.341 166.387 232.642 168.169V168.168Z" fill="#4F1109"/>
<path fill-rule="evenodd" clip-rule="evenodd" d="M158.761 271.302C149.219 260.941 132.948 250.531 133.162 250.28C141.304 240.681 167.064 209.85 169.927 206.127C171.626 205.972 181.628 197.625 182.967 197.625C183.089 197.625 183.137 197.693 183.103 197.849C177.541 221.972 176.091 249.264 178.76 256.646C173.456 260.776 177.134 259.073 174.921 259.975L158.761 271.302H158.761Z" fill="url(#paint6_linear_118_115)"/>
<path d="M145.556 246.499C148.841 249.804 176.702 262.756 179.997 264.415C179.328 273.971 165.638 307.122 162.192 308.46C156.053 310.873 123.563 295.989 123.194 286.108C122.966 279.833 145.556 246.499 145.556 246.499Z" fill="#BA784A"/>
<path d="M176.309 205.68C180.584 200.546 184.99 197.465 186.631 197.582H186.787C186.81 197.582 187.325 197.757 187.845 199.216C188.321 200.6 188.577 202.774 188.597 205.4C188.601 210.685 187.68 217.858 186.34 225.37C183.201 242.841 173.179 268.904 172.567 272.229L177.294 265.343L177.541 269.114C181.555 261.398 211.201 200.182 189.198 195.321C189.198 195.321 181.642 191.583 173.033 203.619C168.472 208.913 163.574 215.955 158.974 223.36C149.773 238.225 141.819 254.312 140.242 260.883L144.153 261.722C146.134 252.977 163.069 220.924 176.308 205.681L176.309 205.68Z" fill="#BA784A"/>
<path d="M195.789 261.703C198.827 262.513 205.713 264.177 206.349 265.207C206.999 266.231 208.441 269.889 208.722 270.642C208.994 271.413 209.115 273.302 208.95 273.898C208.794 274.548 207.688 275.068 207.542 274.117C207.383 273.175 206.203 270.39 206.203 270.39C206.203 270.39 206.141 272.991 205.684 273.282C205.164 273.602 204.859 273.379 204.859 273.379L204.257 272.316C204.257 272.316 204.455 273.496 203.781 273.84C203.466 274.005 202.99 273.413 202.752 272.962C202.82 273.569 203.14 274.214 202.218 274.205C201.539 274.185 200.932 273.024 200.932 273.024C200.932 273.024 201.093 273.971 200.631 274.205C200.189 274.437 198.861 273.579 198.385 273.078C197.899 272.588 196.138 271.206 194.531 269.759C193.581 268.891 187.082 263.722 187.082 263.722L189.484 259.616L195.789 261.703L195.789 261.703Z" fill="#D8A39A"/>
<path d="M196.492 261.169L185.389 235.462L194.862 210.063C194.862 210.063 197.04 194.98 183.953 197.048C174.771 198.479 170.902 225.539 168.714 233.057C166.55 240.588 173.45 248.761 176.489 254.384C180.381 261.566 187.902 268.545 187.902 268.545L196.492 261.169H196.492Z" fill="#4D87DB"/>
<path d="M437.222 233.673C440.163 232.692 448.956 254.248 449.848 260.703C447.543 264.164 437.153 270.739 437.153 270.739C437.153 270.739 433.761 262.916 432.228 254.069C430.689 245.217 436.066 234.055 437.222 233.673Z" fill="#1D1D56"/>
<path d="M435.44 232.658C430.898 231.276 416.14 224.316 410.248 222.604L403.546 232.431C403.546 232.431 403.973 247.538 405.177 259.52C406.341 271.492 405.177 291.069 405.177 291.069C405.177 291.069 409.802 292.136 429.087 290.107C431.838 289.811 435.323 288.089 434.935 277.407C434.537 266.716 434.169 258.113 433.886 252.017C433.174 237.21 441.389 234.483 435.439 232.658H435.44Z" fill="#233377"/>
<path d="M380.34 259.981C378.428 247.085 376.113 234.124 376.113 234.124C376.113 234.124 394.874 225.17 397.243 225.17C399.601 225.17 403.348 228.534 406.9 230.669C406.9 230.669 408.52 242.539 409.403 253.438C410.321 264.809 411.903 290.297 411.903 290.297C411.903 290.297 385.329 295.294 384.616 289.909C384.616 289.909 383.518 287.486 385.64 273.641C385.916 271.943 380.408 261.683 380.34 259.981Z" fill="#1D1D56"/>
<path d="M413.062 211.611C412.898 216.216 417.261 227.209 416.067 229.125C411.83 235.919 397.917 233.178 396.36 227.606C395.87 225.811 396.408 227.47 398.446 214.252C398.723 212.494 413.062 211.611 413.062 211.611Z" fill="#EAC4B2"/>
<path d="M395.554 227.18C395.064 225.369 395.642 224.01 395.88 213.61C395.913 211.82 413.063 209.98 413.063 209.98C412.875 210.99 413.307 214.63 413.335 215.653C412.084 218.207 408.58 224.462 407.288 225.059C405.668 225.786 406.89 232.527 407.09 233.172C401.601 233.813 396.18 229.635 395.554 227.18V227.18Z" fill="#D19D90"/>
<path d="M376.113 234.124C372.638 234.896 369.766 237.564 367.461 249.493C365.291 260.723 364.758 266.613 364.758 266.613L382.078 275.174C382.078 275.174 382.266 269.211 382.266 263.052C382.266 256.899 376.113 234.124 376.113 234.124Z" fill="#233377"/>
<path d="M394.68 222.943L384.985 231.145L398.815 235.74L397.67 238.816L407.856 244.159C407.856 244.159 401.518 234.773 398.815 231.319C396.122 227.849 394.68 222.943 394.68 222.943V222.943Z" fill="#233377"/>
<path d="M415.688 221.671L427.685 228.873L414.504 236.007L415.888 238.987L408.36 244.912C408.36 244.912 411.743 235.259 414.16 231.605C416.577 227.937 415.688 221.671 415.688 221.671Z" fill="#1D1D56"/>
<path d="M380.709 257.665C380.738 272.306 392.584 284.157 407.226 284.186C421.861 284.157 433.708 272.306 433.737 257.665C433.708 243.019 421.861 231.173 407.226 231.145C392.584 231.174 380.738 243.019 380.709 257.665ZM374.648 257.665C374.648 239.671 389.231 225.088 407.226 225.073C425.209 225.087 439.802 239.671 439.802 257.665C439.802 275.66 425.209 290.243 407.226 290.243C389.231 290.243 374.648 275.66 374.648 257.665Z" fill="black"/>
<path d="M389.794 244.393C390.201 243.581 390.124 242.374 389.187 242.214C388.949 242.174 389.944 240.656 388.512 240.234C388.008 240.078 388.41 239.811 388.43 239.481C388.464 238.365 387.867 237.87 385.698 238.885C383.538 239.899 381.422 241.602 380.496 241.126C379.544 240.642 383.67 237.909 384.446 237.191C385.223 236.459 382.17 236.676 380.218 237.385C378.267 238.099 376.438 240.17 374.637 242.082C372.838 243.995 368.922 246.592 368.922 246.592L374.929 251.196C377.035 250.668 383.403 250.789 385.119 250.551C386.834 250.303 387.809 248.46 390.026 246.11C390.255 245.636 391.278 244.703 389.794 244.394L389.794 244.393Z" fill="#DDAC9E"/>
<path d="M439.032 241.132C437.362 239.108 435.678 236.914 433.77 236.084C431.859 235.24 428.836 234.833 429.563 235.609C430.291 236.376 434.227 239.37 433.261 239.792C432.289 240.205 430.3 238.371 428.2 237.219C426.113 236.065 425.487 236.516 425.447 237.637C425.437 237.968 425.825 238.258 425.307 238.375C423.855 238.72 424.748 240.287 424.51 240.316C423.565 240.417 423.41 241.617 423.763 242.456C422.264 242.66 423.22 243.664 423.429 244.146C425.466 246.634 426.321 248.537 428.039 248.896C429.723 249.255 436.085 249.546 438.143 250.201L444.451 245.994C444.451 245.994 440.7 243.155 439.031 241.131L439.032 241.132Z" fill="#DDAC9E"/>
<path d="M413.641 201.721C413.034 194.879 411.127 189.234 400.349 190.045C386.92 191.049 388.625 198.455 389.07 206.811C389.518 215.164 395.802 223.778 402.673 223.389C407.885 223.098 411.922 217.667 413.345 211.412C414.717 210.621 415.679 208.801 415.66 206.714C415.65 203.986 415.612 201.779 413.641 201.721V201.721Z" fill="#EAC4B2"/>
<path d="M397.514 210.403C393.477 193.854 396.078 191.103 395.613 191.185C387.896 192.583 386.425 195.743 386.795 201.877L387.178 203.687C385.072 203.954 386.116 206.273 387.25 208.85C388.372 211.417 389.279 212.946 390.439 213.144C392.749 218.973 396.656 223.578 401.737 223.287L402.396 223.2C402.396 223.2 400.038 220.269 397.514 210.403L397.514 210.403Z" fill="#D6A092"/>
<path d="M395.263 189.861L395.442 189.181C395.442 189.181 396.199 185.265 395.651 185.332C395.335 185.372 393.016 185.614 391.196 187.614L390.633 186.939C390.633 186.939 389.477 188.196 388.512 189.152C387.517 190.099 386.77 190.851 386.77 190.851C386.77 190.851 387.12 191.865 387.12 190.375C385.678 191.011 383.413 194.49 384.751 197.519C384.713 198.281 385.043 199.752 385.11 200.664C385.329 204.434 386.78 204.181 386.78 204.181L387.648 204.555L387.041 200.906C387.041 200.906 386.814 198.81 390.341 196.199C392.938 194.292 399.242 194.258 399.242 194.258L395.263 189.861V189.861Z" fill="black"/>
<path d="M413.99 190.724C413.014 188.463 412.331 187.109 408.283 186.725C407.176 185.095 401.935 184.512 402.323 184.658C403.371 185.055 403.507 185.293 403.507 186.386C402.303 184.804 399.193 184.479 398.786 184.692C398.786 184.692 400.755 185.653 401.032 186.998L401.639 187.211C401.11 185.051 395.908 183.809 395.99 184.571C396.086 185.216 399.581 185.376 399.241 187.084C399.241 185.445 395.034 183.727 392.249 185.172C393.462 186.871 393.675 186.522 389.705 190.502C387.405 190.861 388.152 196.217 392.491 196.185C393.84 196.175 399.95 194.81 403.309 194.524C405.866 195.106 408.481 196.678 409.258 197.678C410.321 199.042 411.015 202.711 411.015 202.711L413.781 201.755L415.231 202.299C415.231 202.299 416.158 195.757 413.989 190.725L413.99 190.724Z" fill="#232121"/>
<path d="M295.885 171.895C296.613 167.876 300.971 161.189 311.133 159.515C311.133 161.859 311.133 163.868 311.133 163.868C311.133 163.868 302.063 166.208 300.607 172.899C297.341 175.239 295.885 171.895 295.885 171.895Z" fill="#2B2323"/>
<path d="M411.553 171.895C410.835 167.876 406.463 161.189 396.301 159.515C396.301 161.859 396.301 163.868 396.301 163.868C396.301 163.868 405.385 166.208 406.832 172.899C410.102 175.239 411.554 171.895 411.554 171.895H411.553Z" fill="#2B2323"/>
<path d="M399.082 164.728C397.005 151.998 392.797 140.88 379.602 140.88H329.471C314.753 140.88 311.443 151.998 309.186 164.722C318.989 163.058 335.46 161.971 354.125 161.971C372.798 161.971 389.279 163.058 399.082 164.728Z" fill="black"/>
<path d="M392.273 160.85C390.381 149.179 386.59 142.04 375.904 142.04H333.015C321.12 142.04 317.936 149.174 315.996 160.84C325.814 159.723 339.266 159.034 354.116 159.034C368.989 159.034 382.456 159.723 392.273 160.85V160.85Z" fill="#FCB910"/>
<path d="M336.474 147.635H333.222V145.543H342.967V147.635H339.726V154.987H336.474V147.635Z" fill="black"/>
<path d="M351.073 151.051L350.864 150.396C350.553 149.494 350.257 148.344 349.956 147.402H349.888C349.612 148.364 349.32 149.494 349.015 150.396L348.806 151.051H351.073ZM351.649 152.983H348.218L347.612 154.987H344.298L348.04 145.543H351.956L355.688 154.987H352.256L351.649 152.983H351.649Z" fill="black"/>
<path d="M360.647 150.135L357.506 145.543H361.127L361.962 147.087C362.22 147.519 362.496 148.039 362.836 148.65H362.903C363.166 148.039 363.433 147.519 363.661 147.087L364.37 145.543H367.848L364.704 150.247L368.038 154.987H364.417L363.433 153.299C363.131 152.804 362.864 152.313 362.569 151.731H362.496C362.219 152.313 361.962 152.804 361.699 153.299L360.787 154.987H357.328L360.647 150.136V150.135Z" fill="black"/>
<path d="M371.396 154.987H374.656V145.545H371.396V154.987Z" fill="black"/>
<path d="M192.925 229.3L206.125 227.086C212.701 225.99 218.689 229.538 219.044 235.153C219.368 236.142 219.873 237.463 221.645 238.594L228.91 240.18C231.07 240.656 232.452 242.844 231.976 245.043C231.525 247.256 228.852 250.426 226.702 249.944L216.293 247.682C213.895 250.425 210.415 250.333 206.125 250.051L192.925 249.139C188.432 248.832 185.132 245.261 185.132 241.16V238.04C185.132 233.94 188.432 230.037 192.925 229.3L192.925 229.3Z" fill="black"/>
<path d="M496.64 388.564C496.64 404.936 486.396 410.586 473.758 410.586H467.077C454.454 410.586 444.209 404.937 444.209 388.564V352.525C444.209 336.146 454.454 322.874 467.077 322.874H473.758C486.396 322.874 496.64 336.146 496.64 352.525V388.564Z" fill="#2B2B2B"/>
<path d="M261.162 388.558C261.162 404.936 250.917 410.586 238.281 410.586H231.607C218.961 410.586 208.731 404.936 208.731 388.558V352.525C208.731 336.146 218.961 322.874 231.607 322.874H238.281C250.917 322.874 261.162 336.146 261.162 352.525V388.558Z" fill="black"/>
<path d="M240.12 244.407C246.943 227.184 257.314 192.491 264.782 189.584C283.776 182.144 338.24 178.199 351.625 177.593H356.871C370.221 178.199 423.773 182.144 442.768 189.584C450.232 192.491 460.626 227.13 467.42 244.368C467.071 244.33 466.717 244.29 466.363 244.251C459.709 243.31 451.887 242.583 443.225 242.04C440.992 237.313 438.74 233.644 437.425 233.644C437.386 233.644 437.347 233.648 437.308 233.654C436.984 233.265 436.396 232.955 435.44 232.658C433.722 232.134 430.543 230.814 426.933 229.281L427.686 228.874L415.689 221.671C415.689 221.671 415.864 222.919 415.844 224.627C415.81 224.612 415.775 224.603 415.743 224.589C414.965 221.133 413.554 216.547 413.16 213.358C413.136 213.052 413.112 212.737 413.088 212.432C413.185 212.096 413.268 211.757 413.345 211.413C414.718 210.621 415.679 208.802 415.66 206.715C415.65 204.653 415.626 202.885 414.762 202.119L415.232 202.299C415.232 202.299 416.159 195.756 413.99 190.724C413.015 188.463 412.331 187.109 408.284 186.726C407.284 185.251 402.916 184.633 402.363 184.633C402.3 184.633 402.285 184.644 402.323 184.658C403.372 185.056 403.508 185.294 403.508 186.386C402.518 185.086 400.242 184.633 399.238 184.633C399.019 184.633 398.859 184.654 398.787 184.693C398.787 184.693 399.261 184.925 399.776 185.319C398.622 184.702 397.234 184.347 396.5 184.347C396.17 184.347 395.976 184.416 395.991 184.571C396.005 184.658 396.074 184.731 396.185 184.804C395.696 184.693 395.176 184.629 394.657 184.629C393.822 184.629 392.987 184.789 392.25 185.173C392.574 185.629 392.828 185.935 392.949 186.221C392.457 186.498 391.948 186.862 391.463 187.333C391.745 186.783 392.027 186.24 392.313 185.712C389.41 185.513 386.838 185.332 384.509 185.173C375.758 184.562 370.474 184.178 364.034 183.863C358.633 183.6 352.421 183.387 342.666 183.125C331.68 183.63 283.059 186.862 267.475 192.971C261.361 195.354 252.858 224.856 247.254 238.982H247.258C247.617 238.948 247.997 238.919 248.394 238.886C268.044 237.298 330.724 235.056 365.495 235.031C365.685 235.031 365.873 235.031 366.063 235.031C368.824 235.031 371.4 235.047 373.764 235.075C372.323 236.012 371.003 237.682 369.799 240.773C364.447 240.837 359.089 240.929 353.766 241.04C346.671 240.894 339.508 240.821 332.37 240.821C296.603 240.821 261.57 242.534 240.12 244.408L240.12 244.407ZM373.992 234.934C378.21 226.203 381.519 213.853 385.372 202.497C385.624 203.459 385.993 203.871 386.29 204.056C385.474 204.851 386.332 206.768 387.25 208.849C388.371 211.416 389.279 212.946 390.439 213.144C391.7 216.333 393.447 219.157 395.597 221.015C395.496 222.845 395.408 224.039 395.375 224.922C394.918 223.743 394.68 222.943 394.68 222.943L387.834 228.737C382.17 231.236 376.113 234.123 376.113 234.123C375.38 234.288 374.677 234.536 373.992 234.934L373.992 234.934Z" fill="white"/>
<path d="M443.225 242.039C442.05 241.966 440.856 241.894 439.652 241.825C439.424 241.587 439.216 241.354 439.031 241.131C438.162 240.073 437.284 238.971 436.376 238.04C437.342 235.817 438.051 234.55 437.308 233.653C437.346 233.648 437.386 233.644 437.425 233.644C438.74 233.644 440.992 237.312 443.225 242.039V242.039Z" fill="#475B81"/>
<path d="M436.377 238.041C435.542 237.191 434.684 236.482 433.77 236.085C432.887 235.691 431.762 235.395 430.882 235.269C429.122 233.406 427.137 231.746 424.977 230.339L426.933 229.281C430.542 230.815 433.722 232.134 435.44 232.658C436.396 232.955 436.983 233.264 437.308 233.654C438.051 234.551 437.342 235.818 436.376 238.041H436.377ZM415.839 225.015C415.81 224.875 415.776 224.729 415.743 224.589C415.776 224.602 415.81 224.612 415.844 224.627C415.844 224.754 415.844 224.884 415.839 225.015H415.839Z" fill="#4C6B9A"/>
<path d="M377.444 239.219C376.672 236.177 376.113 234.124 376.113 234.124C376.113 234.124 382.17 231.236 387.834 228.737L384.985 231.145L387.27 231.907C385.377 233.376 383.65 235.052 382.121 236.895C381.476 237.006 380.801 237.177 380.218 237.384C379.267 237.73 378.346 238.4 377.444 239.219Z" fill="#475B81"/>
<path d="M415.771 226.213C413.059 225.476 410.206 225.078 407.259 225.072C407.268 225.068 407.278 225.063 407.288 225.059C408.579 224.462 412.083 218.207 413.335 215.653C413.325 215.221 413.237 214.323 413.16 213.358C413.554 216.546 414.965 221.133 415.742 224.588C415.775 224.729 415.81 224.875 415.839 225.015C415.829 225.399 415.805 225.796 415.771 226.213V226.213Z" fill="#EED4C6"/>
<path d="M396.248 226.975C395.899 226.228 395.607 225.529 395.375 224.922C395.407 224.039 395.496 222.845 395.597 221.016C397.155 222.356 398.926 223.195 400.887 223.292C401.328 223.365 401.775 223.404 402.227 223.404C402.377 223.404 402.522 223.398 402.672 223.388C407.599 223.118 411.476 218.245 413.087 212.432C413.112 212.737 413.135 213.052 413.16 213.357C413.237 214.323 413.325 215.221 413.335 215.653C412.083 218.206 408.579 224.461 407.287 225.058C407.278 225.062 407.268 225.068 407.258 225.072C407.249 225.072 407.239 225.072 407.226 225.072C403.371 225.078 399.679 225.747 396.248 226.975V226.975Z" fill="#DAB8AD"/>
<path d="M369.799 240.772C371.003 237.681 372.323 236.011 373.764 235.075C373.823 235.075 373.871 235.075 373.925 235.075C373.949 235.03 373.973 234.982 373.992 234.934C374.677 234.537 375.38 234.289 376.113 234.124C376.113 234.124 376.672 236.177 377.443 239.22C376.938 239.676 376.434 240.18 375.933 240.704C373.89 240.725 371.847 240.744 369.799 240.773L369.799 240.772Z" fill="#4C6B9A"/>
<path d="M423.643 241.136C420.323 241.03 416.937 240.942 413.491 240.874L415.888 238.987L414.504 236.007L418.668 233.75C421.143 234.939 423.401 236.497 425.375 238.361C425.355 238.365 425.332 238.371 425.307 238.375C423.856 238.72 424.749 240.287 424.511 240.316C424.026 240.364 423.75 240.703 423.643 241.136ZM409.889 240.807C409.311 240.796 408.729 240.786 408.148 240.777C407.793 237.651 407.458 234.954 407.226 233.134C407.249 233.134 407.274 233.134 407.297 233.134C409.384 233.134 411.438 232.731 413.136 231.814C413.393 231.876 413.65 231.939 413.907 232.003C412.578 234.172 411.016 237.909 409.889 240.807Z" fill="#4C6B9A"/>
<path d="M408.147 240.777C407.278 240.767 406.404 240.754 405.527 240.744C403.721 238.113 401.246 234.556 399.552 232.285C399.927 232.174 400.299 232.066 400.679 231.969C402.261 232.726 404.075 233.235 405.939 233.235C406.322 233.235 406.705 233.216 407.089 233.172C407.084 233.158 407.084 233.149 407.08 233.134C407.128 233.134 407.176 233.134 407.226 233.134C407.458 234.953 407.792 237.651 408.147 240.776V240.777Z" fill="#475B81"/>
<path d="M407.297 233.134C407.274 233.134 407.249 233.134 407.226 233.134C407.176 233.134 407.128 233.134 407.08 233.134C407.011 232.886 406.856 232.12 406.721 231.149C406.89 231.145 407.061 231.145 407.226 231.145C409.259 231.149 411.239 231.383 413.136 231.815C411.438 232.731 409.384 233.134 407.297 233.134Z" fill="#EED4C6"/>
<path d="M405.94 233.235C404.076 233.235 402.261 232.727 400.679 231.969C402.615 231.475 404.638 231.193 406.721 231.149C406.856 232.12 407.011 232.886 407.08 233.134C407.084 233.149 407.084 233.158 407.09 233.172C406.706 233.216 406.322 233.235 405.939 233.235H405.94Z" fill="#DAB8AD"/>
<path d="M401.251 240.694C397.374 240.661 393.438 240.642 389.478 240.642C389.366 240.642 389.255 240.642 389.143 240.646C389.022 240.471 388.828 240.326 388.512 240.234C388.008 240.078 388.41 239.811 388.429 239.481C388.435 239.306 388.425 239.152 388.396 239.016C390.22 237.171 392.317 235.595 394.617 234.347L398.815 235.74L397.67 238.816L401.251 240.694Z" fill="#475B81"/>
<path d="M405.527 240.743C404.11 240.724 402.684 240.709 401.252 240.694L397.67 238.816L398.815 235.74L394.617 234.347C396.175 233.498 397.825 232.809 399.553 232.285C401.246 234.556 403.721 238.113 405.527 240.743V240.743ZM387.27 231.907L384.985 231.144L387.834 228.737L394.68 222.943C394.68 222.943 394.918 223.743 395.375 224.922C395.608 225.529 395.899 226.228 396.249 226.975C392.981 228.145 389.959 229.819 387.27 231.906V231.907Z" fill="#4C6B9A"/>
<path d="M413.49 240.874C412.296 240.85 411.098 240.826 409.889 240.807C411.016 237.908 412.578 234.172 413.907 232.003C415.562 232.435 417.154 233.022 418.668 233.75L414.504 236.007L415.888 238.987L413.49 240.874ZM424.977 230.339C422.177 228.514 419.075 227.111 415.771 226.213C415.806 225.796 415.829 225.399 415.839 225.015C415.845 224.884 415.845 224.754 415.845 224.627C415.864 222.918 415.689 221.671 415.689 221.671L427.686 228.873L426.933 229.281L424.977 230.339H424.977Z" fill="#475B81"/>
<path d="M380.423 240.671C380.917 239.724 383.81 237.778 384.446 237.19C384.781 236.875 384.407 236.739 383.712 236.739C383.276 236.739 382.713 236.793 382.121 236.895C383.65 235.051 385.377 233.376 387.27 231.907C389.959 229.82 392.981 228.146 396.248 226.975C399.679 225.748 403.371 225.078 407.226 225.073C407.24 225.073 407.249 225.073 407.259 225.073C410.206 225.078 413.059 225.476 415.771 226.213C419.076 227.111 422.178 228.515 424.977 230.339C427.137 231.746 429.121 233.406 430.883 235.269C430.567 235.221 430.287 235.196 430.053 235.196C429.538 235.196 429.291 235.318 429.563 235.609C430.291 236.376 434.227 239.37 433.261 239.792C433.163 239.83 433.057 239.851 432.946 239.851C431.902 239.851 430.097 238.258 428.2 237.219C427.35 236.749 426.739 236.545 426.317 236.545C425.7 236.545 425.472 236.973 425.447 237.637C425.437 237.953 425.792 238.229 425.374 238.361C423.4 236.497 421.143 234.939 418.668 233.75C417.154 233.022 415.562 232.435 413.907 232.003C413.65 231.939 413.393 231.876 413.135 231.814C411.238 231.382 409.259 231.149 407.226 231.145C407.06 231.145 406.89 231.145 406.721 231.149C404.638 231.193 402.614 231.475 400.679 231.969C400.299 232.066 399.927 232.174 399.552 232.285C397.825 232.809 396.175 233.498 394.617 234.347C392.317 235.595 390.22 237.171 388.396 239.016C388.314 238.588 388.056 238.337 387.536 238.337C387.114 238.337 386.517 238.502 385.697 238.886C384.543 239.429 383.402 240.166 382.45 240.662C381.776 240.666 381.101 240.666 380.423 240.671L380.423 240.671Z" fill="#2F4642"/>
<path d="M375.933 240.704C376.433 240.18 376.938 239.676 377.443 239.219C378.346 238.399 379.267 237.729 380.218 237.384C380.801 237.177 381.475 237.006 382.12 236.895C382.713 236.793 383.276 236.739 383.712 236.739C384.407 236.739 384.781 236.875 384.445 237.19C383.81 237.778 380.917 239.724 380.423 240.671C378.928 240.68 377.432 240.694 375.933 240.704ZM382.451 240.661C383.403 240.166 384.543 239.429 385.697 238.885C386.517 238.501 387.114 238.336 387.536 238.336C388.056 238.336 388.313 238.588 388.396 239.016C388.425 239.152 388.435 239.306 388.429 239.481C388.41 239.811 388.008 240.078 388.512 240.233C388.828 240.326 389.022 240.471 389.143 240.646C386.92 240.646 384.689 240.652 382.451 240.661Z" fill="#E3C3B7"/>
<path d="M439.652 241.825C434.557 241.539 429.199 241.311 423.643 241.136C423.75 240.704 424.027 240.364 424.511 240.316C424.749 240.287 423.856 238.72 425.307 238.375C425.332 238.371 425.356 238.365 425.375 238.361C425.793 238.229 425.438 237.953 425.448 237.638C425.472 236.973 425.701 236.545 426.317 236.545C426.739 236.545 427.35 236.749 428.2 237.219C430.097 238.258 431.902 239.851 432.946 239.851C433.058 239.851 433.164 239.83 433.261 239.792C434.227 239.37 430.291 236.376 429.564 235.609C429.292 235.318 429.539 235.196 430.053 235.196C430.287 235.196 430.568 235.221 430.883 235.269C431.762 235.395 432.887 235.691 433.771 236.085C434.684 236.482 435.542 237.191 436.378 238.041C437.285 238.972 438.163 240.074 439.033 241.132C439.217 241.354 439.425 241.587 439.653 241.825H439.652Z" fill="#E3C3B7"/>
<path d="M402.227 223.404C401.776 223.404 401.329 223.365 400.887 223.292C401.018 223.302 401.15 223.302 401.28 223.302C401.43 223.302 401.581 223.296 401.737 223.287L402.396 223.2C402.396 223.2 400.038 220.269 397.514 210.403C395.772 203.259 395.267 198.683 395.219 195.801C397.669 195.373 401.09 194.714 403.31 194.524C405.867 195.106 408.482 196.678 409.259 197.678C410.321 199.041 411.016 202.71 411.016 202.71L413.782 201.754L414.761 202.119C415.625 202.885 415.65 204.652 415.66 206.715C415.679 208.802 414.717 210.621 413.344 211.413C413.267 211.757 413.185 212.096 413.087 212.432C411.476 218.245 407.598 223.118 402.672 223.389C402.522 223.399 402.376 223.404 402.227 223.404L402.227 223.404Z" fill="#EED4C6"/>
<path d="M401.28 223.302C401.15 223.302 401.018 223.302 400.887 223.293C398.927 223.195 397.155 222.355 395.598 221.016C393.447 219.157 391.701 216.333 390.439 213.145C389.28 212.947 388.372 211.417 387.251 208.85C386.333 206.769 385.475 204.851 386.29 204.056C386.484 204.168 386.644 204.187 386.722 204.187C386.755 204.187 386.78 204.181 386.78 204.181L387.648 204.555L387.041 200.906C387.041 200.906 386.814 198.81 390.341 196.199C390.492 196.087 390.652 195.985 390.823 195.888C391.293 196.078 391.836 196.185 392.457 196.185C392.468 196.185 392.482 196.185 392.492 196.185C392.948 196.185 393.958 196.02 395.219 195.801C395.267 198.683 395.772 203.26 397.514 210.403C400.038 220.269 402.396 223.201 402.396 223.201L401.737 223.288C401.581 223.297 401.43 223.302 401.28 223.302L401.28 223.302Z" fill="#DEBAAE"/>
<path d="M399.242 187.085C399.242 186.545 398.786 185.998 398.078 185.556C398.796 185.881 399.393 186.332 399.242 187.085Z" fill="white"/>
<path d="M387.648 204.555L386.78 204.181C386.78 204.181 386.756 204.186 386.722 204.186C386.644 204.186 386.484 204.167 386.291 204.056C385.993 203.871 385.625 203.459 385.373 202.497C386.416 199.425 387.494 196.432 388.644 193.597C388.978 194.539 389.696 195.442 390.823 195.887C390.653 195.985 390.493 196.087 390.342 196.198C386.815 198.809 387.042 200.906 387.042 200.906L387.648 204.555H387.648ZM390.172 190.03C390.594 189.108 391.021 188.206 391.463 187.332C391.948 186.862 392.457 186.497 392.949 186.221C393.259 186.948 392.686 187.522 390.172 190.03Z" fill="#2F4642"/>
<path d="M411.016 202.71C411.016 202.71 410.321 199.042 409.259 197.678C408.482 196.678 405.866 195.106 403.309 194.524C401.09 194.714 397.669 195.373 395.219 195.801C393.957 196.019 392.948 196.185 392.491 196.185C392.482 196.185 392.468 196.185 392.457 196.185C391.836 196.185 391.293 196.077 390.822 195.887C389.696 195.442 388.977 194.539 388.643 193.597C389.142 192.379 389.647 191.185 390.171 190.03C392.685 187.522 393.258 186.949 392.948 186.221C392.826 185.935 392.573 185.629 392.249 185.173C392.986 184.789 393.821 184.629 394.656 184.629C395.175 184.629 395.695 184.693 396.185 184.804C396.073 184.731 396.004 184.658 395.99 184.571C395.975 184.416 396.169 184.347 396.499 184.347C397.233 184.347 398.62 184.702 399.775 185.318C399.26 184.925 398.786 184.693 398.786 184.693C398.858 184.654 399.018 184.633 399.237 184.633C400.241 184.633 402.517 185.086 403.507 186.386C403.507 185.294 403.37 185.056 402.322 184.658C402.284 184.644 402.299 184.633 402.362 184.633C402.915 184.633 407.283 185.251 408.283 186.726C412.33 187.109 413.014 188.463 413.989 190.724C416.158 195.756 415.231 202.299 415.231 202.299L414.761 202.119L413.782 201.754L411.016 202.71ZM398.078 185.556C398.786 185.998 399.241 186.546 399.241 187.085C399.393 186.332 398.796 185.881 398.078 185.556Z" fill="#4C5E5A"/>
<path d="M353.766 241.039C311.123 240.146 265.85 242.16 240.12 244.407C246.943 227.184 257.314 192.491 264.782 189.584C283.777 182.144 338.241 178.199 351.625 177.592H356.871C370.221 178.199 423.773 182.144 442.768 189.584C450.236 192.491 460.641 227.184 467.44 244.407C441.428 240.563 396.447 240.146 353.766 241.039ZM494.321 254.729C492.699 253.453 492.632 251.153 483.484 248.527C476.52 231.003 461.893 187.036 452.284 182.688C424.739 170.22 372.047 168.003 357.157 167.318H351.309C336.411 168.003 284.878 168.775 255.275 182.688C245.72 187.176 231.05 231.003 224.066 248.527C214.914 251.153 214.85 253.453 213.24 254.729C207.168 259.524 201.102 265.197 196.787 303.225C194.507 323.262 197.758 345.281 197.758 345.281C197.758 345.281 208.41 371.496 221.823 371.869H485.72C488.206 371.869 492.51 367.686 492.51 367.686C492.51 367.686 506.272 325.785 506.272 303.225C506.272 268.643 500.386 259.524 494.321 254.73L494.321 254.729Z" fill="#4D87DB"/>
<path d="M512.339 227.815L499.106 225.608C492.544 224.515 486.556 228.063 486.206 233.683C485.881 234.668 485.381 235.987 483.611 237.113L476.34 238.7C474.186 239.181 472.812 241.37 473.259 243.568C473.716 245.785 477.248 248.896 479.383 248.431L489.798 246.16C492.184 248.896 494.83 248.848 499.105 248.571L512.339 247.659C516.808 247.358 520.118 243.787 520.118 239.671V236.555C520.118 232.45 516.808 228.553 512.339 227.815H512.339Z" fill="#2B2B2B"/>
<path d="M487.429 371.496C487.429 371.496 506.205 361.897 508.083 351.953C510.947 336.749 508.184 318.298 507.608 303.807C506.176 268.056 500.735 259.524 494.659 254.73C493.058 253.454 492.99 251.154 483.827 248.528C476.85 231.004 462.271 186.974 452.633 182.689C421.837 169.013 372.4 168.004 357.492 167.319H354.265V177.486H357.216C370.589 178.093 424.112 182.034 443.126 189.478C450.595 192.39 460.946 227.181 467.779 244.408C442.073 241.52 396.864 240.167 354.265 241.04V371.87H477.684C480.158 371.87 487.429 371.497 487.429 371.497L487.429 371.496Z" fill="#4D87DB"/>
<path d="M514.79 356.563C514.79 364.988 498.188 371.811 489.598 371.811H215.185C206.586 371.811 188.732 364.988 188.732 356.563V344.173C188.732 335.743 186.994 328.91 195.599 328.91H507.918C516.528 328.91 514.79 335.743 514.79 344.173V356.563Z" fill="#4D87DB"/>
<path d="M503.25 333.76H199.36C190.989 333.76 192.673 334.778 192.673 343.204V344.145C199.277 350.104 215.782 348.804 222.538 348.804H480.063C486.813 348.804 503.324 350.104 509.922 344.145V343.204C509.922 334.778 511.606 333.76 503.251 333.76H503.25Z" fill="#FCB910"/>
<path d="M479.005 321.699C478.884 321.699 478.762 321.699 478.641 321.699L436.984 321.117C426.012 320.966 426.371 312.818 429.875 303.263C433.175 294.242 437.537 287.127 447.476 287.127H485.105C487.28 287.127 489.342 287.453 491.21 288.035C491.235 288.045 491.26 288.054 491.283 288.058C490.283 288.734 489.605 289.734 489.104 290.927C488.968 290.884 488.827 290.84 488.682 290.796C486.973 290.32 485.115 290.068 483.135 290.068H449.106C440.114 290.068 436.178 295.818 433.194 303.117C430.019 310.853 429.695 317.443 439.628 317.57L477.307 318.04C477.418 318.04 477.535 318.04 477.652 318.04C479.496 318.04 481.321 317.821 483.049 317.409C483.377 317.331 483.688 317.249 483.984 317.162C484.261 318.637 484.917 319.835 486.08 320.603C485.741 320.714 485.387 320.821 485.013 320.918C483.072 321.427 481.058 321.699 479.006 321.699L479.005 321.699Z" fill="#654A06"/>
<path d="M491.06 303.603C490.148 310.092 490.962 315.57 483.048 317.409C481.213 317.846 479.266 318.069 477.306 318.04L439.627 317.57C429.694 317.443 430.019 310.853 433.193 303.118C436.177 295.818 440.113 290.069 449.105 290.069H483.135C485.114 290.069 486.972 290.32 488.681 290.796C495.009 292.587 491.885 297.644 491.06 303.603V303.603Z" fill="#D1D1D1"/>
<path d="M489.85 321.554C488.235 321.554 487.003 321.214 486.08 320.603C493.68 318.069 492.893 311.532 493.864 303.855C494.782 296.523 498.207 290.291 491.282 288.058C492.161 287.467 493.292 287.127 494.767 287.127H499.402C503.76 287.127 506.336 288.384 506.336 292.015L508.244 316.245C508.244 321.705 502.444 321.286 496.46 321.417L490.113 321.554C490.021 321.554 489.933 321.554 489.85 321.554Z" fill="#654A06"/>
<path d="M486.08 320.603C484.916 319.836 484.26 318.637 483.983 317.163C490.898 315.119 490.186 309.82 491.06 303.603C491.864 297.78 494.869 292.825 489.103 290.927C489.604 289.734 490.282 288.734 491.283 288.059C498.208 290.291 494.782 296.523 493.865 303.855C492.893 311.532 493.68 318.069 486.08 320.603H486.08Z" fill="#281E02"/>
<path d="M483.983 317.163C483.683 315.56 483.839 313.634 484.29 311.562L488.235 293.858C488.463 292.81 488.734 291.815 489.103 290.927C494.868 292.825 491.864 297.78 491.059 303.603C490.186 309.819 490.898 315.118 483.983 317.163H483.983Z" fill="#545454"/>
<path d="M507.768 313.314C507.768 317.862 504.099 318.046 498.387 318.161L492.282 318.278C486.473 318.386 486.244 314.93 487.429 310.296L490.491 295.242C491.268 292.175 492.529 289.642 496.756 289.642H501.192C505.36 289.642 506.661 291.927 506.661 294.951L507.767 313.314H507.768Z" fill="#D1D1D1"/>
<path d="M211.046 303.851C212.05 311.877 211.138 318.652 219.892 320.918C221.935 321.457 224.081 321.738 226.245 321.705L267.898 321.122C278.895 320.966 278.536 312.818 275.022 303.263C271.713 294.242 270.63 287.127 260.682 287.127H219.787C217.617 287.127 215.559 287.453 213.676 288.035C206.669 290.248 210.109 296.498 211.046 303.85L211.046 303.851Z" fill="#2B2B2B"/>
<path d="M213.847 303.603C214.753 310.092 213.939 315.57 221.843 317.409C223.698 317.846 225.629 318.069 227.599 318.04L265.267 317.57C275.206 317.443 274.876 310.858 271.707 303.118C268.723 295.818 267.986 290.069 258.988 290.069H221.756C219.777 290.069 217.922 290.32 216.223 290.796C209.876 292.587 213.021 297.644 213.846 303.603L213.847 303.603Z" fill="#B2B5B7"/>
<path d="M196.657 316.255C196.657 321.709 202.442 321.287 208.431 321.423L214.797 321.554C220.864 321.695 221.834 317.132 220.601 311.562L216.666 293.858C215.865 290.175 214.531 287.127 210.134 287.127H205.513C201.151 287.127 198.565 288.384 198.565 292.015L196.657 316.254L196.657 316.255Z" fill="#2B2B2B"/>
<path d="M197.137 313.314C197.137 317.862 200.792 318.055 206.513 318.161L212.614 318.278C218.447 318.386 218.656 314.93 217.476 310.3L214.419 295.242C213.628 292.174 212.361 289.642 208.143 289.642H203.723C199.55 289.642 198.244 291.927 198.244 294.95L197.137 313.313V313.314Z" fill="#B2B5B7"/>
<path d="M296.248 318.565C285.359 314.809 278.943 293.15 274.585 282.503C272.605 277.645 249.456 256.899 242.775 251.531L237.989 251.833C243.798 255.7 267.034 279.475 269.267 284.925C273.625 295.567 276.648 317.831 284.393 322.671C309.566 324.606 354.561 323.641 354.561 323.641L354.809 320.254C343.346 320.695 315.738 320.054 296.248 318.565H296.248Z" fill="#FCB910"/>
<path d="M353.776 320.254L354.022 323.64C354.022 323.64 392.371 324.606 417.534 322.67C425.288 317.831 428.321 295.566 432.674 284.925C434.901 279.474 457.647 253.952 463.456 250.08L458.681 249.774C452.008 255.142 429.325 277.645 427.346 282.502C422.988 293.149 416.578 314.809 405.687 318.564C386.198 320.054 365.253 320.695 353.776 320.254Z" fill="#F79406"/>
<path d="M280.636 297.062C277.396 287.641 278.428 282.561 286.411 282.561H416.985C426.492 282.953 424.996 288.884 422.405 296.872L419.799 304.912C417.033 313.513 410.72 320.787 401.999 320.787L298.637 320.748C289.955 320.748 284.33 313.371 282.364 304.666L280.636 297.061V297.062Z" fill="black"/>
<path d="M417.281 293.766C417.281 294.994 416.388 296.008 415.301 296.008H287.974C286.878 296.008 285.995 294.994 285.995 293.766C285.995 292.514 286.878 291.51 287.974 291.51H415.301C416.388 291.51 417.281 292.514 417.281 293.766Z" fill="#8FA4BC"/>
<path d="M414.17 302.2C414.17 303.432 413.326 304.448 412.272 304.448H290.988C289.945 304.448 289.105 303.432 289.105 302.2C289.105 300.944 289.945 299.944 290.988 299.944H412.272C413.326 299.944 414.17 300.944 414.17 302.2Z" fill="#8FA4BC"/>
<path d="M411.85 310.062C411.85 311.305 411.026 312.309 410.021 312.309H293.25C292.249 312.309 291.43 311.305 291.43 310.062C291.43 308.815 292.25 307.811 293.25 307.811H410.021C411.026 307.811 411.85 308.815 411.85 310.062Z" fill="#8FA4BC"/>
<path fill-rule="evenodd" clip-rule="evenodd" d="M373.764 235.075C371.401 235.046 368.824 235.031 366.063 235.031C365.873 235.031 365.685 235.031 365.495 235.031L384.509 185.172C386.838 185.332 389.41 185.512 392.313 185.711C392.027 186.24 391.745 186.783 391.463 187.332C391.371 187.424 391.284 187.516 391.196 187.614L390.634 186.938C390.634 186.938 389.478 188.196 388.512 189.152C387.931 189.705 387.431 190.194 387.12 190.505C387.12 190.461 387.12 190.423 387.12 190.375C385.679 191.01 383.413 194.489 384.752 197.518C384.713 198.28 385.044 199.751 385.111 200.663C385.155 201.429 385.252 202.026 385.373 202.497C381.52 213.853 378.21 226.203 373.993 234.934C373.92 234.982 373.843 235.027 373.765 235.074L373.764 235.075Z" fill="url(#paint7_linear_118_115)"/>
<path fill-rule="evenodd" clip-rule="evenodd" d="M373.925 235.075C373.871 235.075 373.823 235.075 373.764 235.075C373.842 235.026 373.919 234.982 373.992 234.934C373.973 234.983 373.95 235.031 373.925 235.075Z" fill="url(#paint8_linear_118_115)"/>
<path fill-rule="evenodd" clip-rule="evenodd" d="M385.373 202.497C385.252 202.027 385.154 201.43 385.11 200.663C385.043 199.751 384.713 198.281 384.751 197.519C383.413 194.489 385.678 191.01 387.12 190.375C387.12 190.423 387.12 190.462 387.12 190.506C387.431 190.195 387.93 189.705 388.512 189.152C389.477 188.196 390.633 186.939 390.633 186.939L391.196 187.614C391.284 187.516 391.37 187.424 391.463 187.332C391.021 188.206 390.595 189.108 390.172 190.03C390.026 190.181 389.871 190.336 389.706 190.502C388.527 190.686 388.149 192.185 388.644 193.597C387.494 196.432 386.415 199.425 385.373 202.497V202.497Z" fill="url(#paint9_linear_118_115)"/>
<path fill-rule="evenodd" clip-rule="evenodd" d="M388.644 193.597C388.149 192.185 388.527 190.686 389.706 190.502C389.871 190.337 390.027 190.181 390.172 190.03C389.648 191.185 389.143 192.38 388.644 193.597Z" fill="url(#paint10_linear_118_115)"/>
<path fill-rule="evenodd" clip-rule="evenodd" d="M247.258 238.982H247.254C252.858 224.855 261.361 195.353 267.476 192.971C283.059 186.862 331.68 183.629 342.666 183.124C352.421 183.387 358.633 183.6 364.034 183.863L268.902 192.728L248.395 238.885C247.997 238.918 247.617 238.947 247.258 238.981V238.982Z" fill="url(#paint11_linear_118_115)"/>
<defs>
<linearGradient id="paint0_linear_118_115" x1="-359.705" y1="647.471" x2="-465.121" y2="705.751" gradientUnits="userSpaceOnUse">
<stop stop-color="white"/>
<stop offset="0.671" stop-color="white"/>
<stop offset="1" stop-color="white"/>
</linearGradient>
<linearGradient id="paint1_linear_118_115" x1="-351.263" y1="626.001" x2="-454.808" y2="680.392" gradientUnits="userSpaceOnUse">
<stop stop-color="white"/>
<stop offset="0.671" stop-color="white"/>
<stop offset="1" stop-color="white"/>
</linearGradient>
<linearGradient id="paint2_linear_118_115" x1="149.643" y1="282.963" x2="165.461" y2="249.573" gradientUnits="userSpaceOnUse">
<stop/>
<stop offset="0.639"/>
<stop offset="1"/>
</linearGradient>
<linearGradient id="paint3_linear_118_115" x1="199.991" y1="180.436" x2="218.389" y2="193.836" gradientUnits="userSpaceOnUse">
<stop stop-color="white"/>
<stop offset="0.639" stop-color="#C6C0B9"/>
<stop offset="1" stop-color="#C6C0B9"/>
</linearGradient>
<linearGradient id="paint4_linear_118_115" x1="199.992" y1="180.436" x2="218.389" y2="193.836" gradientUnits="userSpaceOnUse">
<stop stop-color="#D6A092"/>
<stop offset="0.639" stop-color="#A6786A"/>
<stop offset="1" stop-color="#A6786A"/>
</linearGradient>
<linearGradient id="paint5_linear_118_115" x1="200.158" y1="180.186" x2="218.419" y2="193.378" gradientUnits="userSpaceOnUse">
<stop stop-color="#D6A092"/>
<stop offset="0.639" stop-color="#A6786A"/>
<stop offset="1" stop-color="#A6786A"/>
</linearGradient>
<linearGradient id="paint6_linear_118_115" x1="139.892" y1="249.988" x2="202.511" y2="218.546" gradientUnits="userSpaceOnUse">
<stop stop-color="#3357BC"/>
<stop offset="0.639" stop-color="#284288"/>
<stop offset="1" stop-color="#284288"/>
</linearGradient>
<linearGradient id="paint7_linear_118_115" x1="360.958" y1="191.753" x2="249.333" y2="253.465" gradientUnits="userSpaceOnUse">
<stop stop-color="white"/>
<stop offset="0.671" stop-color="white"/>
<stop offset="1" stop-color="white"/>
</linearGradient>
<linearGradient id="paint8_linear_118_115" x1="360.958" y1="191.783" x2="249.333" y2="253.449" gradientUnits="userSpaceOnUse">
<stop stop-color="#4C6B9A"/>
<stop offset="0.671" stop-color="#4C6B9A"/>
<stop offset="1" stop-color="#4C6B9A"/>
</linearGradient>
<linearGradient id="paint9_linear_118_115" x1="364.478" y1="191.753" x2="265.736" y2="253.465" gradientUnits="userSpaceOnUse">
<stop stop-color="#2F4642"/>
<stop offset="0.671" stop-color="#2F4642"/>
<stop offset="1" stop-color="#2F4642"/>
</linearGradient>
<linearGradient id="paint10_linear_118_115" x1="365.016" y1="191.753" x2="268.898" y2="253.466" gradientUnits="userSpaceOnUse">
<stop stop-color="#4C5E5A"/>
<stop offset="0.671" stop-color="#4C5E5A"/>
<stop offset="1" stop-color="#4C5E5A"/>
</linearGradient>
<linearGradient id="paint11_linear_118_115" x1="360.958" y1="191.753" x2="249.332" y2="253.466" gradientUnits="userSpaceOnUse">
<stop stop-color="white"/>
<stop offset="0.671" stop-color="white"/>
<stop offset="1" stop-color="white"/>
</linearGradient>
</defs>
</svg>
